<?xml version="1.0" encoding="utf-8"?>
<!-- Generator: Adobe Illustrator 24.0.0, SVG Export Plug-In . SVG Version: 6.00 Build 0)  -->
<svg version="1.1" id="Layer_1" xmlns="http://www.w3.org/2000/svg" xmlns:xlink="http://www.w3.org/1999/xlink" x="0px" y="0px"
	 viewBox="0 0 640 247.33" style="enable-background:new 0 0 640 247.33;" xml:space="preserve">
<style type="text/css">
	.st0{fill:#F8AB3F;}
	.st1{fill:#58595B;}
	.st2{fill:#F6A93D;}
	.st3{fill:#0151B4;}
	.st4{fill-rule:evenodd;clip-rule:evenodd;fill:#0151B4;}
	.st5{fill:#BD509D;}
	.st6{fill:none;}
</style>
<path id="XMLID_3_" class="st0" d="M69.93-92.48"/>
<path id="XMLID_32_" class="st0" d="M152.89,93.01"/>
<path id="XMLID_31_" class="st0" d="M69.39,76.74"/>
<path class="st1" d="M210,180.46"/>
<g>
	<path class="st2" d="M244.61,50.93h20.73l25.91,79.06l26.14-79.06h20.71l18.75,113.35h-20.57l-11.98-71.58l-23.74,71.58H281.8
		l-23.53-71.58L246,164.28h-20.74L244.61,50.93z"/>
	<path class="st2" d="M407.88,50.93h21.57l42.98,113.35h-22.11l-8.74-23.35h-45.6l-9.09,23.35h-22.11L407.88,50.93z M418.8,80.98
		l-14.99,38.91h29.9L418.8,80.98z"/>
	<path class="st2" d="M488.88,50.93h21.27v92.77h31v20.57h-52.27V50.93z"/>
	<path class="st2" d="M557.33,50.93h21.27v92.77h31v20.57h-52.27V50.93z"/>
</g>
<g>
	<path class="st3" d="M256.05,211.29c0.9,0.7,1.35,1.55,1.35,2.53c0,0.99-0.45,1.82-1.35,2.5c-0.9,0.68-2,1.02-3.3,1.02h-5.55
		c-3.3,0-6.41-0.48-9.33-1.45s-5.48-2.28-7.67-3.93c-2.19-1.65-3.93-3.59-5.21-5.8c-1.28-2.22-1.93-4.6-1.93-7.14
		c0-2.5,0.64-4.87,1.93-7.08c1.28-2.22,3.02-4.15,5.21-5.81c2.19-1.65,4.74-2.96,7.67-3.93c2.92-0.97,6.03-1.45,9.33-1.45h5.55
		c1.3,0,2.4,0.34,3.3,1.02c0.9,0.68,1.35,1.52,1.35,2.5c0,0.99-0.45,1.83-1.35,2.53c-0.9,0.7-2,1.05-3.3,1.05h-5.55
		c-2.05,0-3.96,0.29-5.73,0.88c-1.77,0.59-3.33,1.39-4.68,2.39c-1.35,1.01-2.41,2.19-3.18,3.56c-0.77,1.37-1.16,2.81-1.16,4.33
		c0,1.56,0.39,3.02,1.16,4.38c0.77,1.37,1.84,2.55,3.18,3.56c1.35,1,2.91,1.8,4.68,2.39c1.77,0.59,3.68,0.88,5.73,0.88h5.55
		C254.05,210.24,255.15,210.59,256.05,211.29z"/>
	<path class="st3" d="M284.75,180.65c3.35,0,6.48,0.48,9.4,1.45c2.92,0.97,5.47,2.28,7.64,3.93c2.17,1.65,3.9,3.59,5.17,5.83
		c1.27,2.24,1.91,4.61,1.91,7.11v14.8c0,0.99-0.45,1.82-1.35,2.5c-0.9,0.68-2,1.02-3.3,1.02c-1.3,0-2.41-0.34-3.33-1.02
		c-0.92-0.68-1.39-1.52-1.39-2.5v-6.83h-14.76v-0.06c-0.15,0.04-0.43,0.06-0.82,0.06c-1.65,0-3.22,0.19-4.72,0.57
		c-1.5,0.38-2.86,0.91-4.08,1.59c-1.22,0.68-2.29,1.5-3.18,2.45c-0.9,0.95-1.57,1.99-2.02,3.13c-0.05,0.04-0.07,0.08-0.07,0.11
		c0,0.04-0.03,0.08-0.08,0.11c-0.3,0.72-0.85,1.3-1.65,1.74c-0.8,0.44-1.72,0.65-2.77,0.65c-1.3,0-2.4-0.34-3.3-1.02
		c-0.9-0.68-1.35-1.52-1.35-2.5v-0.51v-14.28c0-2.24,0.5-4.34,1.5-6.32c1.2-2.43,3-4.59,5.4-6.49c2.25-1.71,4.83-3.05,7.76-4.04
		C278.26,181.14,281.4,180.65,284.75,180.65z M299.51,199.82v-0.85c0-1.97-0.63-3.79-1.87-5.46c0-0.04-0.01-0.07-0.04-0.09
		c-0.03-0.02-0.04-0.05-0.04-0.08c-0.2-0.23-0.4-0.46-0.6-0.68c-0.2-0.23-0.4-0.44-0.6-0.63c-1.35-1.33-3.02-2.37-5.02-3.13
		c-2-0.76-4.2-1.14-6.59-1.14c-2.4,0-4.61,0.41-6.63,1.22c-2.02,0.82-3.71,1.89-5.06,3.22c-0.95,0.95-1.69,1.99-2.21,3.13
		s-0.79,2.35-0.79,3.64v4.21c1.95-1.06,4.1-1.89,6.44-2.48c2.35-0.59,4.82-0.88,7.42-0.88h0.82H299.51z"/>
	<path class="st3" d="M362.83,217.29c-1.3,0-2.39-0.34-3.26-1.02c-0.87-0.68-1.31-1.52-1.31-2.5v-21.05l-5.98,4.55
		c-1.2,0.91-2.56,1.61-4.08,2.11c-1.52,0.49-3.13,0.74-4.82,0.74c-1.69,0-3.31-0.25-4.86-0.74c-1.55-0.49-2.89-1.2-4.04-2.11
		l-6.06-4.61v21.11c0,0.99-0.45,1.82-1.36,2.5c-0.91,0.68-2.01,1.02-3.32,1.02c-1.31,0-2.42-0.34-3.32-1.02
		c-0.91-0.68-1.36-1.52-1.36-2.5v-29.53c0-0.99,0.45-1.82,1.35-2.5c0.9-0.68,2-1.02,3.3-1.02c0.95,0,1.82,0.21,2.62,0.63v-0.06
		l0.6,0.4l13.34,10.19c0.9,0.61,1.92,0.91,3.07,0.91c1.1,0,2.1-0.3,3-0.91l13.79-10.53h0.08c0.8-0.42,1.67-0.63,2.62-0.63
		c1.3,0,2.4,0.34,3.3,1.02c0.9,0.68,1.35,1.52,1.35,2.5v29.53c0,0.99-0.45,1.82-1.35,2.5C365.23,216.95,364.13,217.29,362.83,217.29
		z"/>
	<path class="st3" d="M424.73,198.57c0.05,1.56-0.16,3.07-0.64,4.55c-0.48,1.48-1.16,2.89-2.06,4.24c-0.9,1.35-2.01,2.6-3.34,3.76
		c-1.33,1.16-2.84,2.17-4.54,3.04c-3.55,1.82-7.46,2.85-11.71,3.1c-4.25,0.25-8.31-0.31-12.16-1.68c-1.85-0.68-3.57-1.53-5.14-2.53
		c-1.58-1-2.95-2.13-4.13-3.39c-1.17-1.25-2.15-2.61-2.93-4.07c-0.78-1.46-1.26-2.97-1.46-4.52c-0.05-0.3-0.09-0.6-0.11-0.88
		c-0.03-0.28-0.04-0.58-0.04-0.88v-0.74v-23.33c0-0.99,0.45-1.82,1.36-2.5c0.91-0.68,2.02-1.02,3.32-1.02
		c1.31,0,2.42,0.34,3.32,1.02c0.91,0.68,1.36,1.52,1.36,2.5v9.39v-0.06c2.55-1.44,5.36-2.49,8.43-3.16c3.07-0.66,6.21-0.84,9.4-0.54
		c3.15,0.3,6.12,1.05,8.92,2.25c2.8,1.2,5.17,2.76,7.12,4.7c1.55,1.56,2.75,3.25,3.6,5.09
		C424.15,194.75,424.63,196.64,424.73,198.57z M412.74,205.46c1.99-2.12,2.87-4.51,2.62-7.17c-0.1-1.4-0.55-2.74-1.35-4.01
		c-0.8-1.27-1.85-2.4-3.14-3.39c-0.65-0.45-1.33-0.85-2.06-1.19c-0.72-0.34-1.48-0.66-2.28-0.97c-1.9-0.65-3.87-0.97-5.91-0.97
		c-2.04,0-4.02,0.3-5.91,0.91c-1.9,0.65-3.55,1.54-4.95,2.67s-2.45,2.43-3.15,3.87c-0.9,1.93-1.09,3.91-0.56,5.92
		c0.52,2.01,1.66,3.79,3.41,5.35c1.35,1.21,2.95,2.13,4.8,2.73c0.45,0.19,0.91,0.36,1.39,0.51c0.47,0.15,0.96,0.3,1.46,0.45
		c-0.4-0.11-0.8-0.24-1.2-0.37c-0.4-0.13-0.8-0.28-1.2-0.43c3.14,1.06,6.39,1.23,9.73,0.51c1.69-0.34,3.26-0.89,4.68-1.65
		C410.53,207.49,411.74,206.56,412.74,205.46z"/>
	<path class="st3" d="M448.78,180.99c3.85-0.49,7.63-0.29,11.35,0.62c3.72,0.91,6.96,2.43,9.7,4.55c2.25,1.71,3.98,3.69,5.21,5.95
		c1.22,2.26,1.81,4.6,1.76,7.03c0,1.93-0.41,3.82-1.24,5.66c-0.82,1.84-1.99,3.54-3.48,5.09c-2.45,2.5-5.55,4.41-9.29,5.72
		c-3.75,1.31-7.64,1.87-11.69,1.68c-2.1-0.11-4.15-0.44-6.15-0.97c-2-0.53-3.86-1.23-5.58-2.1s-3.29-1.9-4.68-3.07
		c-1.4-1.18-2.57-2.48-3.52-3.93c-0.9-1.4-1.56-2.86-1.99-4.38c-0.43-1.52-0.59-3.04-0.49-4.58c0.1-1.54,0.44-3.05,1.01-4.55
		c0.57-1.5,1.41-2.91,2.51-4.24c0.35-0.49,0.77-0.99,1.27-1.48h0.08c1.85-1.9,4.1-3.43,6.74-4.61
		C442.96,182.2,445.78,181.4,448.78,180.99z M464.97,205.4c1.05-1.18,1.78-2.45,2.21-3.81c0.42-1.37,0.51-2.75,0.26-4.15
		c-0.3-1.4-0.85-2.64-1.65-3.7c-1-1.37-2.3-2.54-3.9-3.53c-1.6-0.99-3.4-1.67-5.4-2.05c-1.95-0.42-3.95-0.51-5.99-0.28
		c-2.05,0.23-3.95,0.76-5.69,1.59c-2.25,1.1-4,2.56-5.25,4.38c-1.25,1.82-1.8,3.76-1.65,5.8c0.1,1.59,0.62,3.07,1.57,4.44
		c0.25,0.34,0.49,0.69,0.71,1.05c0.22,0.36,0.49,0.71,0.79,1.05c-0.45-0.57-0.87-1.16-1.27-1.76c0.8,1.1,1.82,2.08,3.07,2.93
		c1.25,0.85,2.65,1.55,4.2,2.08c1.6,0.53,3.27,0.82,5.02,0.88c1.75,0.06,3.45-0.12,5.1-0.54c1.6-0.38,3.07-0.95,4.42-1.71
		C462.87,207.31,464.02,206.42,464.97,205.4z"/>
	<path class="st3" d="M528.44,199.31c0,0.3-0.01,0.6-0.04,0.88c-0.03,0.28-0.06,0.58-0.11,0.88c-0.25,1.56-0.75,3.05-1.5,4.5
		c-0.75,1.44-1.71,2.79-2.89,4.04s-2.55,2.38-4.13,3.39c-1.58,1-3.29,1.85-5.14,2.53c-3.85,1.37-7.91,1.93-12.16,1.71
		c-4.25-0.23-8.15-1.25-11.71-3.07c-3.4-1.74-6.04-4.01-7.92-6.8c-1.88-2.79-2.76-5.74-2.66-8.85c0.1-1.94,0.57-3.81,1.42-5.63
		c0.85-1.82,2.05-3.51,3.6-5.06c1.95-1.94,4.32-3.5,7.12-4.7c2.8-1.19,5.77-1.94,8.92-2.25c3.15-0.3,6.27-0.13,9.37,0.51
		c3.1,0.65,5.89,1.71,8.39,3.19h0.07v-9.39c0-0.99,0.45-1.82,1.36-2.5c0.91-0.68,2.02-1.02,3.32-1.02c1.31,0,2.42,0.34,3.32,1.02
		c0.91,0.68,1.36,1.52,1.36,2.5v23.33V199.31z M515.44,206.42c1.75-1.56,2.89-3.33,3.41-5.32c0.52-1.99,0.34-3.95-0.56-5.89
		c-0.7-1.48-1.76-2.79-3.19-3.93c-1.42-1.14-3.06-2.01-4.91-2.62c-1.9-0.65-3.88-0.97-5.95-0.97c-2.07,0-4.03,0.32-5.87,0.97
		c-0.8,0.3-1.56,0.63-2.28,0.97c-0.72,0.34-1.41,0.74-2.06,1.2c-1.3,0.99-2.34,2.11-3.14,3.39c-0.8,1.27-1.25,2.63-1.35,4.07
		c-0.1,1.25,0.06,2.5,0.49,3.73c0.42,1.23,1.14,2.36,2.13,3.38c1,1.1,2.21,2.04,3.63,2.82c1.42,0.78,2.96,1.34,4.6,1.68
		c1.6,0.3,3.24,0.42,4.94,0.34c1.7-0.08,3.32-0.38,4.86-0.91c-0.4,0.15-0.8,0.29-1.2,0.43c-0.4,0.13-0.83,0.26-1.28,0.37
		c0.95-0.26,1.92-0.57,2.92-0.91C512.55,208.49,514.14,207.56,515.44,206.42z"/>
	<path class="st3" d="M544.48,178.82c-1.3,0-2.4-0.35-3.3-1.04c-0.9-0.7-1.35-1.53-1.35-2.51c0-0.98,0.45-1.82,1.35-2.51
		c0.9-0.7,2-1.04,3.3-1.04s2.41,0.35,3.33,1.04c0.92,0.7,1.39,1.53,1.39,2.51c0,0.98-0.46,1.82-1.39,2.51
		C546.89,178.48,545.78,178.82,544.48,178.82z M544.48,183.09c1.3,0,2.41,0.35,3.33,1.05c0.92,0.7,1.39,1.54,1.39,2.53v14.62v0.4
		v0.34v1.54v10.07c0,0.99-0.46,1.83-1.39,2.53c-0.92,0.7-2.04,1.05-3.33,1.05s-2.4-0.35-3.3-1.05c-0.9-0.7-1.35-1.54-1.35-2.53
		v-10.07v-1.54v-0.34v-0.4v-14.62c0-0.99,0.45-1.83,1.35-2.53C542.08,183.44,543.18,183.09,544.48,183.09z"/>
	<path class="st3" d="M585.09,180.65c3.35,0,6.48,0.48,9.4,1.45c2.92,0.97,5.47,2.28,7.64,3.93c2.17,1.65,3.9,3.59,5.17,5.83
		c1.27,2.24,1.91,4.61,1.91,7.11v14.8c0,0.99-0.45,1.82-1.35,2.5c-0.9,0.68-2,1.02-3.3,1.02c-1.3,0-2.41-0.34-3.33-1.02
		c-0.92-0.68-1.39-1.52-1.39-2.5v-6.83h-14.76v-0.06c-0.15,0.04-0.43,0.06-0.82,0.06c-1.65,0-3.22,0.19-4.72,0.57
		c-1.5,0.38-2.86,0.91-4.08,1.59c-1.22,0.68-2.29,1.5-3.18,2.45c-0.9,0.95-1.57,1.99-2.02,3.13c-0.05,0.04-0.08,0.08-0.08,0.11
		c0,0.04-0.03,0.08-0.08,0.11c-0.3,0.72-0.85,1.3-1.65,1.74c-0.8,0.44-1.72,0.65-2.77,0.65c-1.3,0-2.4-0.34-3.3-1.02
		c-0.9-0.68-1.35-1.52-1.35-2.5v-0.51v-14.28c0-2.24,0.5-4.34,1.5-6.32c1.2-2.43,3-4.59,5.4-6.49c2.25-1.71,4.83-3.05,7.76-4.04
		C578.61,181.14,581.74,180.65,585.09,180.65z M599.85,199.82v-0.85c0-1.97-0.63-3.79-1.87-5.46c0-0.04-0.01-0.07-0.04-0.09
		c-0.03-0.02-0.04-0.05-0.04-0.08c-0.2-0.23-0.4-0.46-0.6-0.68c-0.2-0.23-0.4-0.44-0.6-0.63c-1.35-1.33-3.02-2.37-5.02-3.13
		c-2-0.76-4.2-1.14-6.59-1.14c-2.4,0-4.61,0.41-6.63,1.22c-2.02,0.82-3.71,1.89-5.06,3.22c-0.95,0.95-1.69,1.99-2.21,3.13
		s-0.79,2.35-0.79,3.64v4.21c1.95-1.06,4.1-1.89,6.44-2.48c2.35-0.59,4.82-0.88,7.42-0.88h0.82H599.85z"/>
</g>
<path class="st4" d="M80.32,45.23l48.99-9.53c1.61-0.31,3.18,0.75,3.49,2.36l0,0c0.31,1.61-0.75,3.18-2.36,3.49l-48.99,9.53
	c-1.61,0.31-3.18-0.75-3.49-2.36l0,0C77.66,47.12,78.72,45.55,80.32,45.23"/>
<path class="st4" d="M69.72,47.3c1.82-0.35,3.58,0.83,3.93,2.65c0.35,1.82-0.83,3.58-2.65,3.93c-1.82,0.35-3.58-0.83-3.93-2.65
	C66.72,49.41,67.9,47.65,69.72,47.3"/>
<g>
	<path class="st4" d="M131.85,192c8.59-1.65,7.83-15.97-2.83-15.01C120.43,178.64,121.19,192.96,131.85,192z"/>
	<path class="st0" d="M197.71,173.62c-8.59,1.65-7.83,15.97,2.83,15.01C209.13,186.98,208.37,172.66,197.71,173.62z"/>
	<path class="st5" d="M135.17,73.38"/>
	<path class="st0" d="M130.28,117.26c-0.04,0-0.09,0.01-0.13,0.01c-0.41-2.27-6.06-24.8-6.79-27.68
		c22.42-4.89,59.04-12.87,81.12-17.68l-7.2,41.03c-18.35,1.21-48.85,3.21-66.97,4.4L130.28,117.26z M171.49,151.3l-31.95,2.09
		l-5.48-21.7c22.58-1.22,58.69-4.35,81.11-5.05l13.49-75.76c0.01-0.12-20.81,4.5-21.31,4.56l0,0.01
		c-30.8,6.66-90.86,19.63-121.63,26.28c0.98,4.98,2.88,15,3.85,20.29l9.01-1.88l-1-5.37l6.05-1.31l19.24,76.23l0.1-0.03l0.01,0.11
		c22.12-1.45,64.96-4.26,86.44-5.66c0.84-4.69,3.83-19.77,4.84-24.85c-6.61,0.43-13.22,0.86-19.82,1.29
		c-0.64,3.12-1.27,6.24-1.91,9.37C187.36,150.27,176.84,150.95,171.49,151.3z"/>
	<path class="st3" d="M149.19,47.36c-3.11,1.86-5.73,4.37-7.72,7.32c-3.48,5.17-5.01,11.65-3.73,18.21
		c0.08,0.27,0.17,0.68,0.14,1.19c-0.03,0.54-0.17,0.96-0.29,1.22c-1.38,0.09-2.77,0.18-4.15,0.27c-0.14-0.25-0.28-0.54-0.41-0.86
		c-0.12-0.3-0.22-0.58-0.3-0.84c-0.33-1.67-0.64-4.03-0.51-6.84c0.24-5.51,2.03-10.75,5.02-15.19c2.73-4.06,6.47-7.44,10.93-9.74
		L149.19,47.36z M161.66,38.84c5.94,0.02,11.61,1.85,16.36,5.05c6.25,4.21,10.9,10.8,12.44,18.74l0.46,2.37l-5.01,0.98l-0.46-2.37
		c-1.28-6.56-5.12-12-10.29-15.48c-3.65-2.46-7.97-3.95-12.51-4.15L161.66,38.84z"/>
</g>
<path class="st3" d="M185.46,172.72l-9.12,0.59l1.81,9.29c0.41,2.11-0.08,4.2-1.21,5.87c-1.12,1.67-2.88,2.91-4.99,3.32
	l-83.22,16.19c-2.11,0.41-4.2-0.08-5.86-1.21c-1.67-1.12-2.91-2.88-3.32-4.99L50.69,53.49c-0.41-2.11,0.08-4.2,1.21-5.87
	c1.12-1.67,2.88-2.91,4.98-3.32l83.22-16.19c2.11-0.41,4.2,0.08,5.87,1.21c1.67,1.12,2.91,2.88,3.32,4.99l5.61,28.81l8.9-1.73
	l-5.61-28.81c-0.89-4.57-3.56-8.35-7.15-10.77c-3.59-2.42-8.1-3.48-12.66-2.59L55.15,35.4c-4.57,0.89-8.35,3.56-10.77,7.15
	c-2.42,3.59-3.48,8.1-2.59,12.66l28.85,148.3c0.89,4.57,3.56,8.35,7.15,10.77c3.59,2.42,8.1,3.48,12.66,2.59l83.22-16.19
	c4.57-0.89,8.35-3.56,10.77-7.15c2.42-3.59,3.48-8.1,2.59-12.66L185.46,172.72z"/>
<rect id="_x3C_Slice_x3E_" x="-64" y="-141.72" class="st6" width="734" height="142"/>
</svg>
